<svg xmlns="http://www.w3.org/2000/svg" width="24" height="19">
    <path fill="#B2B5B9" fill-rule="evenodd" d="M23.415 8.298c-1.696 1.318-5.181 3.164-11.402 3.164-6.228 0-9.725-1.85-11.427-3.168-.851-.66-.711-1.945.14-2.606C1.744 4.896 5.56 4.491 5.56 4.491l.172 1.936L6.97 1.483 7.059.99C7.285-.244 9.568.084 11.006.54c.647.205 1.34.205 1.986 0 1.442-.457 3.731-.785 3.948.457l.087.478 1.239 4.952.173-1.93s3.812.405 4.832 1.195c.851.66.994 1.944.144 2.606zM5.203 13.203c.566-.106 1.694-.28 2.997-.28 1.872 0 3.331.648 3.331.648h.937s1.458-.648 3.331-.648c1.302 0 2.431.174 2.997.28.228.043.4.233.418.465l.015.184c.016.2-.091.39-.27.479h-.001a.494.494 0 0 0-.269.389c-.105 1.002-.51 3.494-3.142 3.494-2.917 0-3.007-2.79-3.097-3.348l-.003-.016c-.087-.501-.808-.501-.896 0l-.003.016c-.089.558-.18 3.348-3.096 3.348-2.632 0-3.037-2.492-3.142-3.494a.492.492 0 0 0-.27-.389.491.491 0 0 1-.27-.479l.015-.185a.514.514 0 0 1 .418-.464z"/>
</svg>
